<svg xmlns="http://www.w3.org/2000/svg" xmlns:xlink="http://www.w3.org/1999/xlink" width="474" zoomAndPan="magnify" viewBox="0 0 355.5 30.000001" height="40" preserveAspectRatio="xMidYMid meet" version="1.2"><defs/><g id="fb06b50907"><g style="fill:#ffffff;fill-opacity:1;"><g transform="translate(6.86515, 22.187644)"><path style="stroke:none" d="M 30.265625 -19.765625 L 20.734375 -0.296875 C 20.628906 -0.0976562 20.460938 0 20.234375 0 C 20.015625 0 19.859375 -0.109375 19.765625 -0.328125 L 14.9375 -11.171875 L 9.609375 -0.296875 C 9.503906 -0.0976562 9.335938 0 9.109375 0 C 8.890625 0 8.738281 -0.109375 8.65625 -0.328125 L 0 -19.765625 L 0.796875 -19.890625 C 1.585938 -19.984375 2.320312 -19.832031 3 -19.4375 C 3.6875 -19.039062 4.179688 -18.46875 4.484375 -17.71875 L 9.28125 -7.609375 L 13.21875 -15.03125 L 11.125 -19.765625 L 11.921875 -19.890625 C 12.554688 -19.972656 13.15625 -19.894531 13.71875 -19.65625 C 14.289062 -19.414062 14.765625 -19.050781 15.140625 -18.5625 C 15.503906 -19.050781 15.972656 -19.414062 16.546875 -19.65625 C 17.117188 -19.894531 17.71875 -19.972656 18.34375 -19.890625 L 19.140625 -19.765625 L 16.84375 -15.078125 L 20.390625 -7.609375 L 25.78125 -17.71875 C 26.0625 -18.46875 26.546875 -19.039062 27.234375 -19.4375 C 27.929688 -19.832031 28.675781 -19.984375 29.46875 -19.890625 Z M 30.265625 -19.765625 "/></g></g><g style="fill:#ffffff;fill-opacity:1;"><g transform="translate(41.068547, 22.187644)"><path style="stroke:none" d="M 16.96875 0.03125 L 6.09375 0.03125 C 4.96875 0.03125 3.941406 -0.242188 3.015625 -0.796875 C 2.097656 -1.347656 1.363281 -2.082031 0.8125 -3 C 0.269531 -3.914062 0 -4.941406 0 -6.078125 L 0 -9.953125 L 0.765625 -9.78125 C 1.515625 -9.601562 2.125 -9.210938 2.59375 -8.609375 C 3.070312 -8.015625 3.3125 -7.328125 3.3125 -6.546875 L 3.3125 -6.21875 C 3.3125 -5.675781 3.441406 -5.179688 3.703125 -4.734375 C 3.972656 -4.296875 4.328125 -3.945312 4.765625 -3.6875 C 5.203125 -3.4375 5.6875 -3.3125 6.21875 -3.3125 L 13.59375 -3.3125 C 14.351562 -3.3125 15.03125 -3.066406 15.625 -2.578125 C 16.226562 -2.097656 16.617188 -1.488281 16.796875 -0.75 Z M 16.96875 -19.90625 L 16.796875 -19.140625 C 16.628906 -18.390625 16.242188 -17.78125 15.640625 -17.3125 C 15.035156 -16.84375 14.351562 -16.609375 13.59375 -16.609375 L 5.828125 -16.609375 C 5.128906 -16.609375 4.535156 -16.363281 4.046875 -15.875 C 3.554688 -15.382812 3.3125 -14.796875 3.3125 -14.109375 C 3.3125 -13.410156 3.554688 -12.816406 4.046875 -12.328125 C 4.535156 -11.835938 5.128906 -11.59375 5.828125 -11.59375 L 13.296875 -11.59375 L 13.125 -10.859375 C 12.9375 -10.109375 12.539062 -9.488281 11.9375 -9 C 11.34375 -8.519531 10.664062 -8.28125 9.90625 -8.28125 L 5.828125 -8.28125 C 4.742188 -8.28125 3.757812 -8.539062 2.875 -9.0625 C 2 -9.59375 1.300781 -10.296875 0.78125 -11.171875 C 0.257812 -12.054688 0 -13.035156 0 -14.109375 C 0 -15.171875 0.257812 -16.140625 0.78125 -17.015625 C 1.300781 -17.898438 2 -18.601562 2.875 -19.125 C 3.757812 -19.644531 4.742188 -19.90625 5.828125 -19.90625 Z M 16.96875 -19.90625 "/></g></g><g style="fill:#ffffff;fill-opacity:1;"><g transform="translate(61.829728, 22.187644)"><path style="stroke:none" d="M 15.875 -5.671875 C 15.875 -4.628906 15.617188 -3.675781 15.109375 -2.8125 C 14.609375 -1.945312 13.925781 -1.257812 13.0625 -0.75 C 12.195312 -0.25 11.253906 0 10.234375 0 L 4.1875 0 C 3.238281 0 2.394531 -0.238281 1.65625 -0.71875 C 0.914062 -1.195312 0.4375 -1.8125 0.21875 -2.5625 L 0 -3.3125 L 10.234375 -3.3125 C 10.878906 -3.3125 11.425781 -3.539062 11.875 -4 C 12.332031 -4.46875 12.5625 -5.023438 12.5625 -5.671875 C 12.5625 -6.304688 12.332031 -6.851562 11.875 -7.3125 C 11.40625 -7.78125 10.859375 -8.015625 10.234375 -8.015625 L 4.359375 -8.015625 L 4.359375 -7.890625 C 4.359375 -7.097656 4.113281 -6.390625 3.625 -5.765625 C 3.144531 -5.140625 2.535156 -4.738281 1.796875 -4.5625 L 1.015625 -4.375 L 1.015625 -12.328125 C 1.015625 -13.117188 1.253906 -13.820312 1.734375 -14.4375 C 2.222656 -15.0625 2.835938 -15.46875 3.578125 -15.65625 L 4.359375 -15.828125 L 4.359375 -11.328125 L 7.421875 -11.328125 C 8.128906 -11.328125 8.742188 -11.582031 9.265625 -12.09375 C 9.796875 -12.613281 10.0625 -13.238281 10.0625 -13.96875 C 10.0625 -14.695312 9.796875 -15.316406 9.265625 -15.828125 C 8.742188 -16.347656 8.128906 -16.609375 7.421875 -16.609375 L 3.515625 -16.609375 C 2.710938 -16.609375 2 -16.84375 1.375 -17.3125 C 0.757812 -17.78125 0.359375 -18.390625 0.171875 -19.140625 L 0 -19.90625 L 7.421875 -19.90625 C 8.515625 -19.90625 9.507812 -19.632812 10.40625 -19.09375 C 11.300781 -18.5625 12.015625 -17.847656 12.546875 -16.953125 C 13.085938 -16.054688 13.359375 -15.0625 13.359375 -13.96875 C 13.359375 -13.40625 13.28125 -12.859375 13.125 -12.328125 C 12.96875 -11.796875 12.757812 -11.304688 12.5 -10.859375 C 13.488281 -10.421875 14.296875 -9.734375 14.921875 -8.796875 C 15.554688 -7.859375 15.875 -6.816406 15.875 -5.671875 Z M 15.875 -5.671875 "/></g></g><g style="fill:#ffffff;fill-opacity:1;"><g transform="translate(81.570298, 22.187644)"><path style="stroke:none" d=""/></g></g><g style="fill:#ffffff;fill-opacity:1;"><g transform="translate(91.353679, 22.187644)"><path style="stroke:none" d="M 16.96875 -13.3125 L 16.96875 -6.59375 C 16.96875 -5.6875 16.796875 -4.832031 16.453125 -4.03125 C 16.109375 -3.238281 15.632812 -2.535156 15.03125 -1.921875 C 14.4375 -1.316406 13.738281 -0.84375 12.9375 -0.5 C 12.144531 -0.164062 11.289062 0 10.375 0 L 0 0 L 0 -17.125 L 0.765625 -16.953125 C 1.515625 -16.765625 2.125 -16.375 2.59375 -15.78125 C 3.070312 -15.1875 3.3125 -14.503906 3.3125 -13.734375 L 3.3125 -4.734375 C 3.3125 -4.347656 3.453125 -4.015625 3.734375 -3.734375 C 4.015625 -3.453125 4.347656 -3.3125 4.734375 -3.3125 L 9.484375 -3.3125 C 10.242188 -3.3125 10.9375 -3.5 11.5625 -3.875 C 12.195312 -4.257812 12.703125 -4.765625 13.078125 -5.390625 C 13.453125 -6.023438 13.640625 -6.722656 13.640625 -7.484375 L 13.640625 -12.421875 C 13.640625 -13.179688 13.453125 -13.875 13.078125 -14.5 C 12.703125 -15.132812 12.195312 -15.644531 11.5625 -16.03125 C 10.9375 -16.414062 10.242188 -16.609375 9.484375 -16.609375 L 3.390625 -16.609375 C 2.617188 -16.609375 1.9375 -16.84375 1.34375 -17.3125 C 0.75 -17.78125 0.359375 -18.390625 0.171875 -19.140625 L 0 -19.90625 L 10.375 -19.90625 C 11.289062 -19.90625 12.144531 -19.734375 12.9375 -19.390625 C 13.738281 -19.054688 14.4375 -18.585938 15.03125 -17.984375 C 15.632812 -17.378906 16.109375 -16.675781 16.453125 -15.875 C 16.796875 -15.082031 16.96875 -14.226562 16.96875 -13.3125 Z M 16.96875 -13.3125 "/></g></g><g style="fill:#ffffff;fill-opacity:1;"><g transform="translate(112.164652, 22.187644)"><path style="stroke:none" d="M 16.96875 0.03125 L 6.09375 0.03125 C 4.96875 0.03125 3.941406 -0.242188 3.015625 -0.796875 C 2.097656 -1.347656 1.363281 -2.082031 0.8125 -3 C 0.269531 -3.914062 0 -4.941406 0 -6.078125 L 0 -9.953125 L 0.765625 -9.78125 C 1.515625 -9.601562 2.125 -9.210938 2.59375 -8.609375 C 3.070312 -8.015625 3.3125 -7.328125 3.3125 -6.546875 L 3.3125 -6.21875 C 3.3125 -5.675781 3.441406 -5.179688 3.703125 -4.734375 C 3.972656 -4.296875 4.328125 -3.945312 4.765625 -3.6875 C 5.203125 -3.4375 5.6875 -3.3125 6.21875 -3.3125 L 13.59375 -3.3125 C 14.351562 -3.3125 15.03125 -3.066406 15.625 -2.578125 C 16.226562 -2.097656 16.617188 -1.488281 16.796875 -0.75 Z M 16.96875 -19.90625 L 16.796875 -19.140625 C 16.628906 -18.390625 16.242188 -17.78125 15.640625 -17.3125 C 15.035156 -16.84375 14.351562 -16.609375 13.59375 -16.609375 L 5.828125 -16.609375 C 5.128906 -16.609375 4.535156 -16.363281 4.046875 -15.875 C 3.554688 -15.382812 3.3125 -14.796875 3.3125 -14.109375 C 3.3125 -13.410156 3.554688 -12.816406 4.046875 -12.328125 C 4.535156 -11.835938 5.128906 -11.59375 5.828125 -11.59375 L 13.296875 -11.59375 L 13.125 -10.859375 C 12.9375 -10.109375 12.539062 -9.488281 11.9375 -9 C 11.34375 -8.519531 10.664062 -8.28125 9.90625 -8.28125 L 5.828125 -8.28125 C 4.742188 -8.28125 3.757812 -8.539062 2.875 -9.0625 C 2 -9.59375 1.300781 -10.296875 0.78125 -11.171875 C 0.257812 -12.054688 0 -13.035156 0 -14.109375 C 0 -15.171875 0.257812 -16.140625 0.78125 -17.015625 C 1.300781 -17.898438 2 -18.601562 2.875 -19.125 C 3.757812 -19.644531 4.742188 -19.90625 5.828125 -19.90625 Z M 16.96875 -19.90625 "/></g></g><g style="fill:#ffffff;fill-opacity:1;"><g transform="translate(132.925833, 22.187644)"><path style="stroke:none" d="M 18.96875 -19.765625 L 9.40625 -0.21875 C 9.320312 -0.0703125 9.195312 0 9.03125 0 C 8.863281 0 8.75 -0.0703125 8.6875 -0.21875 L 0 -19.765625 L 0.796875 -19.890625 C 1.578125 -19.984375 2.304688 -19.832031 2.984375 -19.4375 C 3.660156 -19.039062 4.144531 -18.476562 4.4375 -17.75 L 9.1875 -7.734375 L 14.53125 -17.75 C 14.8125 -18.476562 15.289062 -19.039062 15.96875 -19.4375 C 16.65625 -19.832031 17.390625 -19.984375 18.171875 -19.890625 Z M 18.96875 -19.765625 "/></g></g><g style="fill:#ffffff;fill-opacity:1;"><g transform="translate(155.902498, 22.187644)"><path style="stroke:none" d=""/></g></g><g style="fill:#ffffff;fill-opacity:1;"><g transform="translate(165.685878, 22.187644)"><path style="stroke:none" d="M 3.3125 -19.90625 L 3.3125 -3.390625 C 3.3125 -2.617188 3.070312 -1.9375 2.59375 -1.34375 C 2.125 -0.75 1.515625 -0.359375 0.765625 -0.171875 L 0 0 L 0 -16.53125 C 0 -17.289062 0.238281 -17.96875 0.71875 -18.5625 C 1.195312 -19.164062 1.8125 -19.554688 2.5625 -19.734375 Z M 3.3125 -19.90625 "/></g></g><g style="fill:#ffffff;fill-opacity:1;"><g transform="translate(172.855498, 22.187644)"><path style="stroke:none" d="M 16.96875 -19.90625 L 16.96875 -3.390625 C 16.96875 -2.617188 16.726562 -1.9375 16.25 -1.34375 C 15.769531 -0.75 15.15625 -0.359375 14.40625 -0.171875 L 13.640625 0 L 7.796875 -7.6875 L 5.953125 -10.359375 L 3.3125 -14.1875 L 3.3125 -3.390625 C 3.3125 -2.617188 3.070312 -1.9375 2.59375 -1.34375 C 2.125 -0.75 1.515625 -0.359375 0.765625 -0.171875 L 0 0 L 0 -16.53125 C 0 -17.289062 0.238281 -17.96875 0.71875 -18.5625 C 1.195312 -19.164062 1.8125 -19.554688 2.5625 -19.734375 L 3.3125 -19.90625 L 8.6875 -12.21875 L 10.53125 -9.5625 L 13.3125 -5.46875 C 13.445312 -5.289062 13.554688 -5.128906 13.640625 -4.984375 L 13.640625 -16.53125 C 13.640625 -17.289062 13.878906 -17.96875 14.359375 -18.5625 C 14.835938 -19.164062 15.453125 -19.554688 16.203125 -19.734375 Z M 16.96875 -19.90625 "/></g></g><g style="fill:#ffffff;fill-opacity:1;"><g transform="translate(193.61669, 22.187644)"><path style="stroke:none" d=""/></g></g><g style="fill:#ffffff;fill-opacity:1;"><g transform="translate(203.40006, 22.187644)"><path style="stroke:none" d="M 9.3125 -16.5 L 9.3125 -3.484375 C 9.3125 -2.703125 9.066406 -2 8.578125 -1.375 C 8.085938 -0.757812 7.453125 -0.359375 6.671875 -0.171875 L 5.90625 0 L 5.90625 -15.078125 L 4.875 -14.0625 C 4.3125 -13.507812 3.640625 -13.1875 2.859375 -13.09375 C 2.078125 -13.007812 1.359375 -13.175781 0.703125 -13.59375 L 0 -14.015625 L 5.90625 -19.90625 C 6.53125 -19.90625 7.097656 -19.75 7.609375 -19.4375 C 8.128906 -19.132812 8.539062 -18.726562 8.84375 -18.21875 C 9.15625 -17.707031 9.3125 -17.132812 9.3125 -16.5 Z M 9.3125 -16.5 "/></g></g><g style="fill:#ffffff;fill-opacity:1;"><g transform="translate(216.668465, 22.187644)"><path style="stroke:none" d="M 16.953125 0 L 6.5 0 C 5.300781 0 4.210938 -0.289062 3.234375 -0.875 C 2.253906 -1.46875 1.46875 -2.253906 0.875 -3.234375 C 0.289062 -4.210938 0 -5.300781 0 -6.5 L 0 -13.421875 C 0 -14.609375 0.289062 -15.691406 0.875 -16.671875 C 1.46875 -17.648438 2.253906 -18.429688 3.234375 -19.015625 C 4.210938 -19.609375 5.300781 -19.90625 6.5 -19.90625 L 10.40625 -19.90625 C 11.601562 -19.90625 12.691406 -19.609375 13.671875 -19.015625 C 14.660156 -18.429688 15.445312 -17.648438 16.03125 -16.671875 C 16.625 -15.691406 16.921875 -14.609375 16.921875 -13.421875 L 16.921875 -2.96875 L 16.15625 -3.140625 C 15.40625 -3.304688 14.789062 -3.691406 14.3125 -4.296875 C 13.832031 -4.898438 13.59375 -5.582031 13.59375 -6.34375 L 13.59375 -12.375 C 13.59375 -13.15625 13.398438 -13.863281 13.015625 -14.5 C 12.640625 -15.132812 12.132812 -15.644531 11.5 -16.03125 C 10.863281 -16.414062 10.160156 -16.609375 9.390625 -16.609375 L 7.546875 -16.609375 C 6.765625 -16.609375 6.050781 -16.414062 5.40625 -16.03125 C 4.769531 -15.644531 4.257812 -15.132812 3.875 -14.5 C 3.5 -13.863281 3.3125 -13.15625 3.3125 -12.375 L 3.3125 -7.546875 C 3.3125 -6.765625 3.5 -6.050781 3.875 -5.40625 C 4.257812 -4.769531 4.769531 -4.257812 5.40625 -3.875 C 6.050781 -3.5 6.765625 -3.3125 7.546875 -3.3125 L 13.5625 -3.3125 C 14.320312 -3.3125 15 -3.070312 15.59375 -2.59375 C 16.195312 -2.125 16.59375 -1.515625 16.78125 -0.765625 Z M 16.953125 0 "/></g></g><g style="fill:#ffffff;fill-opacity:1;"><g transform="translate(237.454531, 22.187644)"><path style="stroke:none" d="M 16.953125 0 L 6.5 0 C 5.300781 0 4.210938 -0.289062 3.234375 -0.875 C 2.253906 -1.46875 1.46875 -2.253906 0.875 -3.234375 C 0.289062 -4.210938 0 -5.300781 0 -6.5 L 0 -13.421875 C 0 -14.609375 0.289062 -15.691406 0.875 -16.671875 C 1.46875 -17.648438 2.253906 -18.429688 3.234375 -19.015625 C 4.210938 -19.609375 5.300781 -19.90625 6.5 -19.90625 L 10.40625 -19.90625 C 11.601562 -19.90625 12.691406 -19.609375 13.671875 -19.015625 C 14.660156 -18.429688 15.445312 -17.648438 16.03125 -16.671875 C 16.625 -15.691406 16.921875 -14.609375 16.921875 -13.421875 L 16.921875 -2.96875 L 16.15625 -3.140625 C 15.40625 -3.304688 14.789062 -3.691406 14.3125 -4.296875 C 13.832031 -4.898438 13.59375 -5.582031 13.59375 -6.34375 L 13.59375 -12.375 C 13.59375 -13.15625 13.398438 -13.863281 13.015625 -14.5 C 12.640625 -15.132812 12.132812 -15.644531 11.5 -16.03125 C 10.863281 -16.414062 10.160156 -16.609375 9.390625 -16.609375 L 7.546875 -16.609375 C 6.765625 -16.609375 6.050781 -16.414062 5.40625 -16.03125 C 4.769531 -15.644531 4.257812 -15.132812 3.875 -14.5 C 3.5 -13.863281 3.3125 -13.15625 3.3125 -12.375 L 3.3125 -7.546875 C 3.3125 -6.765625 3.5 -6.050781 3.875 -5.40625 C 4.257812 -4.769531 4.769531 -4.257812 5.40625 -3.875 C 6.050781 -3.5 6.765625 -3.3125 7.546875 -3.3125 L 13.5625 -3.3125 C 14.320312 -3.3125 15 -3.070312 15.59375 -2.59375 C 16.195312 -2.125 16.59375 -1.515625 16.78125 -0.765625 Z M 16.953125 0 "/></g></g><g style="fill:#ffffff;fill-opacity:1;"><g transform="translate(258.240619, 22.187644)"><path style="stroke:none" d=""/></g></g><g style="fill:#ffffff;fill-opacity:1;"><g transform="translate(268.023989, 22.187644)"><path style="stroke:none" d="M 16.96875 -13.3125 L 16.96875 -6.59375 C 16.96875 -5.6875 16.796875 -4.832031 16.453125 -4.03125 C 16.109375 -3.238281 15.632812 -2.535156 15.03125 -1.921875 C 14.4375 -1.316406 13.738281 -0.84375 12.9375 -0.5 C 12.144531 -0.164062 11.289062 0 10.375 0 L 0 0 L 0 -17.125 L 0.765625 -16.953125 C 1.515625 -16.765625 2.125 -16.375 2.59375 -15.78125 C 3.070312 -15.1875 3.3125 -14.503906 3.3125 -13.734375 L 3.3125 -4.734375 C 3.3125 -4.347656 3.453125 -4.015625 3.734375 -3.734375 C 4.015625 -3.453125 4.347656 -3.3125 4.734375 -3.3125 L 9.484375 -3.3125 C 10.242188 -3.3125 10.9375 -3.5 11.5625 -3.875 C 12.195312 -4.257812 12.703125 -4.765625 13.078125 -5.390625 C 13.453125 -6.023438 13.640625 -6.722656 13.640625 -7.484375 L 13.640625 -12.421875 C 13.640625 -13.179688 13.453125 -13.875 13.078125 -14.5 C 12.703125 -15.132812 12.195312 -15.644531 11.5625 -16.03125 C 10.9375 -16.414062 10.242188 -16.609375 9.484375 -16.609375 L 3.390625 -16.609375 C 2.617188 -16.609375 1.9375 -16.84375 1.34375 -17.3125 C 0.75 -17.78125 0.359375 -18.390625 0.171875 -19.140625 L 0 -19.90625 L 10.375 -19.90625 C 11.289062 -19.90625 12.144531 -19.734375 12.9375 -19.390625 C 13.738281 -19.054688 14.4375 -18.585938 15.03125 -17.984375 C 15.632812 -17.378906 16.109375 -16.675781 16.453125 -15.875 C 16.796875 -15.082031 16.96875 -14.226562 16.96875 -13.3125 Z M 16.96875 -13.3125 "/></g></g><g style="fill:#ffffff;fill-opacity:1;"><g transform="translate(288.834974, 22.187644)"><path style="stroke:none" d="M 16.5 -0.171875 L 15.734375 -0.046875 C 15.003906 0.0664062 14.3125 -0.0507812 13.65625 -0.40625 C 13 -0.769531 12.53125 -1.296875 12.25 -1.984375 L 12.078125 -2.421875 L 8.265625 -11.65625 L 4.4375 -2.421875 L 4.25 -1.984375 C 3.96875 -1.296875 3.5 -0.765625 2.84375 -0.390625 C 2.1875 -0.0234375 1.492188 0.0859375 0.765625 -0.046875 L 0 -0.171875 L 1.4375 -3.640625 L 6.5 -15.875 L 6.328125 -16.28125 L 4.90625 -19.765625 L 5.65625 -19.859375 C 6.132812 -19.941406 6.597656 -19.914062 7.046875 -19.78125 C 7.492188 -19.65625 7.890625 -19.453125 8.234375 -19.171875 C 8.585938 -19.453125 8.988281 -19.65625 9.4375 -19.78125 C 9.894531 -19.914062 10.367188 -19.941406 10.859375 -19.859375 L 11.59375 -19.765625 L 10.1875 -16.28125 L 10 -15.875 L 15.0625 -3.640625 Z M 16.5 -0.171875 "/></g></g><g style="fill:#ffffff;fill-opacity:1;"><g transform="translate(308.924051, 22.187644)"><path style="stroke:none" d="M 9.984375 -9.390625 L 9.984375 -3.390625 C 9.984375 -2.617188 9.742188 -1.9375 9.265625 -1.34375 C 8.796875 -0.75 8.1875 -0.359375 7.4375 -0.171875 L 6.671875 0 L 6.671875 -8.609375 C 6.671875 -9.921875 6.171875 -11 5.171875 -11.84375 L 1.171875 -15.1875 C 0.585938 -15.6875 0.21875 -16.3125 0.0625 -17.0625 C -0.09375 -17.8125 0 -18.53125 0.34375 -19.21875 L 0.71875 -19.90625 L 6.671875 -14.90625 L 7.859375 -13.90625 C 8.523438 -13.34375 9.046875 -12.660156 9.421875 -11.859375 C 9.796875 -11.066406 9.984375 -10.242188 9.984375 -9.390625 Z M 16.421875 -19.21875 C 16.773438 -18.53125 16.875 -17.8125 16.71875 -17.0625 C 16.5625 -16.3125 16.191406 -15.6875 15.609375 -15.1875 L 10.625 -11 C 10.25 -11.46875 10.007812 -11.988281 9.90625 -12.5625 C 9.800781 -13.144531 9.84375 -13.707031 10.03125 -14.25 C 10.226562 -14.800781 10.5625 -15.28125 11.03125 -15.6875 L 16.046875 -19.90625 Z M 16.421875 -19.21875 "/></g></g><g style="fill:#ffffff;fill-opacity:1;"><g transform="translate(329.685242, 22.187644)"><path style="stroke:none" d="M 5.796875 -11.625 L 11.15625 -11.625 C 12.226562 -11.625 13.195312 -11.363281 14.0625 -10.84375 C 14.9375 -10.320312 15.632812 -9.617188 16.15625 -8.734375 C 16.6875 -7.859375 16.953125 -6.878906 16.953125 -5.796875 C 16.953125 -4.734375 16.691406 -3.757812 16.171875 -2.875 C 15.660156 -2 14.960938 -1.300781 14.078125 -0.78125 C 13.203125 -0.257812 12.226562 0 11.15625 0 L 3.390625 0 C 2.617188 0 1.9375 -0.238281 1.34375 -0.71875 C 0.75 -1.195312 0.359375 -1.8125 0.171875 -2.5625 L 0 -3.3125 L 11.15625 -3.3125 C 11.832031 -3.3125 12.414062 -3.554688 12.90625 -4.046875 C 13.394531 -4.535156 13.640625 -5.117188 13.640625 -5.796875 C 13.640625 -6.492188 13.394531 -7.082031 12.90625 -7.5625 C 12.414062 -8.039062 11.832031 -8.28125 11.15625 -8.28125 L 5.796875 -8.28125 C 4.734375 -8.28125 3.757812 -8.539062 2.875 -9.0625 C 2 -9.59375 1.300781 -10.296875 0.78125 -11.171875 C 0.257812 -12.054688 0 -13.035156 0 -14.109375 C 0 -15.171875 0.257812 -16.140625 0.78125 -17.015625 C 1.300781 -17.898438 2 -18.601562 2.875 -19.125 C 3.757812 -19.644531 4.734375 -19.90625 5.796875 -19.90625 L 16.953125 -19.90625 L 16.78125 -19.140625 C 16.613281 -18.390625 16.222656 -17.78125 15.609375 -17.3125 C 15.003906 -16.84375 14.320312 -16.609375 13.5625 -16.609375 L 5.796875 -16.609375 C 5.117188 -16.609375 4.535156 -16.363281 4.046875 -15.875 C 3.554688 -15.382812 3.3125 -14.796875 3.3125 -14.109375 C 3.3125 -13.410156 3.554688 -12.820312 4.046875 -12.34375 C 4.535156 -11.863281 5.117188 -11.625 5.796875 -11.625 Z M 5.796875 -11.625 "/></g></g></g></svg>